<svg width="16" height="13" viewBox="0 0 16 13" fill="none" xmlns="http://www.w3.org/2000/svg">
<path d="M5.026 13C11.064 13 14.367 7.997 14.367 3.666C14.367 3.526 14.367 3.384 14.361 3.244C15.0041 2.77848 15.5591 2.20215 16 1.542C15.3993 1.80685 14.7628 1.9814 14.111 2.06C14.7975 1.64964 15.3117 1.00397 15.558 0.242999C14.913 0.625123 14.207 0.893372 13.471 1.036C12.9762 0.509023 12.3214 0.159917 11.6081 0.0427563C10.8948 -0.0744039 10.1627 0.0469203 9.52534 0.387936C8.88796 0.728952 8.38081 1.27063 8.08245 1.92906C7.78409 2.58749 7.71118 3.32593 7.875 4.03C6.56974 3.96455 5.29282 3.62547 4.12704 3.03474C2.96127 2.44402 1.93268 1.61484 1.108 0.600999C0.68934 1.32408 0.561574 2.1794 0.750646 2.99326C0.939718 3.80713 1.43145 4.51853 2.126 4.983C1.60554 4.96532 1.09652 4.82556 0.64 4.575V4.62C0.640897 5.37748 0.903307 6.11142 1.38287 6.69776C1.86244 7.2841 2.52975 7.68687 3.272 7.838C2.99026 7.91561 2.69923 7.95431 2.407 7.953C2.20098 7.95362 1.99538 7.93454 1.793 7.896C2.00279 8.54806 2.41127 9.11816 2.96125 9.52648C3.51122 9.93479 4.17513 10.1608 4.86 10.173C3.69656 11.0868 2.2594 11.5824 0.78 11.58C0.519321 11.5811 0.258823 11.5661 0 11.535C1.50151 12.4923 3.2453 13.0005 5.026 13V13Z" fill="white"/>
</svg>
